HIERARCHY
ROOT Hips
{
	OFFSET 0.00000 0.00000 0.00000
	CHANNELS 6 Xposition Yposition Zposition Zrotation Yrotation Xrotation 
	JOINT LHipJoint
	{
		OFFSET 0 0 0
		CHANNELS 3 Zrotation Yrotation Xrotation
		JOINT LeftHip
		{
			OFFSET 1.74857 -1.85566 0.69197
			CHANNELS 3 Zrotation Yrotation Xrotation
			JOINT LeftKnee
			{
				OFFSET 2.40003 -6.59403 0.00000
				CHANNELS 3 Zrotation Yrotation Xrotation
				JOINT LeftAnkle
				{
					OFFSET 2.82169 -7.75254 0.00000
					CHANNELS 3 Zrotation Yrotation Xrotation
					JOINT LeftToe
					{
						OFFSET 0.16466 -0.45240 2.26890
						CHANNELS 3 Zrotation Yrotation Xrotation
						End Site
						{
							OFFSET 0.00000 -0.00000 1.16486
						}
					}
				}
			}
		}
	}
	JOINT RHipJoint
	{
		OFFSET 0 0 0
		CHANNELS 3 Zrotation Yrotation Xrotation
		JOINT RightHip
		{
			OFFSET -1.64169 -1.85566 0.69197
			CHANNELS 3 Zrotation Yrotation Xrotation
			JOINT RightKnee
			{
				OFFSET -2.41814 -6.64379 0.00000
				CHANNELS 3 Zrotation Yrotation Xrotation
				JOINT RightAnkle
				{
					OFFSET -2.80588 -7.70911 0.00000
					CHANNELS 3 Zrotation Yrotation Xrotation
					JOINT RightToe
					{
						OFFSET -0.19098 -0.52472 2.25401
						CHANNELS 3 Zrotation Yrotation Xrotation
						End Site
						{
							OFFSET -0.00000 -0.00000 1.16333
						}
					}
				}
			}
		}
	}
	JOINT lowerback
	{
		OFFSET 0 0 0
		CHANNELS 3 Zrotation Yrotation Xrotation
		JOINT Chest
		{
			OFFSET -0.02828 2.14690 -0.11061
			CHANNELS 3 Zrotation Yrotation Xrotation
			JOINT Chest2
			{
				OFFSET -0.00167 2.15299 0.00759
				CHANNELS 3 Zrotation Yrotation Xrotation
				JOINT lowerneck
				{
					OFFSET 0 0 0
					CHANNELS 3 Zrotation Yrotation Xrotation
					JOINT Neck
					{
						OFFSET -0.09296 1.90118 0.07197
						CHANNELS 3 Zrotation Yrotation Xrotation
						JOINT Head
						{
							OFFSET 0.08490 1.89526 -0.24604
							CHANNELS 3 Zrotation Yrotation Xrotation
							End Site
							{
								OFFSET 0.03186 1.92109 -0.09483
							}
						}
					}
				}
				JOINT LeftCollar
				{
					OFFSET 0 0 0
					CHANNELS 3 Zrotation Yrotation Xrotation
					JOINT LeftShoulder
					{
						OFFSET 3.21569 1.44644 -0.03720
CHANNELS 3 Zrotation Xrotation Yrotation
						JOINT LeftElbow
						{
OFFSET 0 -5.476510 -0.000000
CHANNELS 3 Zrotation Xrotation Yrotation
							JOINT LeftWrist
							{
OFFSET 0 -3.090580 -0.000000
CHANNELS 3 Zrotation Xrotation Yrotation
								JOINT lhand
								{
									OFFSET 0 0 0
CHANNELS 3 Zrotation Xrotation Yrotation
									JOINT LFingers
									{
OFFSET 0 -0.771610 -0.000000
CHANNELS 3 Zrotation Xrotation Yrotation
										End Site
										{
OFFSET 0 -0.622090 -0.000000
										}
									}
								}
								JOINT LThumb
								{
OFFSET 0 0.000000 0.000000
CHANNELS 3 Zrotation Xrotation Yrotation
									End Site
									{
OFFSET 0 -0.631590 0.631590
									}
								}
							}
						}
					}
				}
				JOINT RightCollar
				{
					OFFSET 0 0 0
					CHANNELS 3 Zrotation Yrotation Xrotation
					JOINT RightShoulder
					{
						OFFSET -3.38693 1.28904 -0.07093
CHANNELS 3 Zrotation Xrotation Yrotation
						JOINT RightElbow
						{
OFFSET 0 -5.141820 -0.000000
CHANNELS 3 Zrotation Xrotation Yrotation
							JOINT RightWrist
							{
OFFSET 0 -3.355650 -0.000000
CHANNELS 3 Zrotation Xrotation Yrotation
								JOINT rhand
								{
									OFFSET 0 0 0
CHANNELS 3 Zrotation Xrotation Yrotation
									JOINT RFingers
									{
OFFSET 0 -0.801040 -0.000000
CHANNELS 3 Zrotation Xrotation Yrotation
										End Site
										{
OFFSET 0 -0.645820 -0.000000
										}
									}
								}
								JOINT RThumb
								{
OFFSET 0 0.000000 0.000000
CHANNELS 3 Zrotation Xrotation Yrotation
									End Site
									{
OFFSET 0 -0.655680 0.655680
									}
								}
							}
						}
					}
				}
			}
		}
	}
}
MOTION
Frames: 4
Frame Time: 0.008333333333333333
-0.362700 18.086700 -1.093300 2.395600 -3.189900 0.688700 0.000000 0.000000 0.000000 -20.867600 -2.947700 -0.633100 0.599200 4.955300 13.781100 0.453300 9.232900 -19.261300 0.626800 -5.066200 -14.097400 0.000000 0.000000 0.000000 19.082200 8.356100 -3.960400 -1.312100 -7.255500 20.474700 -0.434200 -9.329500 -19.148800 -0.319200 3.631400 -10.042000 -1.475200 1.869300 2.476400 -0.448900 2.456100 1.148200 0.300500 1.224200 -0.253000 -4.734900 -4.811600 -6.093600 0.911900 -6.202300 22.651500 0.546400 -3.247800 8.192400 -0.000000 0.000000 0.000000 9.566100 12.139900 -37.946400 31.352900 -42.025200 12.305400 -3.025800 -12.769900 -29.541200 0.000000 0.000000 0.000000 -7.125000 0.000000 0.000000 -36.149800 55.614100 10.393500 -0.000000 0.000000 0.000000 -4.469400 4.020200 23.425800 -14.316300 -23.185100 -2.951500 -13.315600 -3.363300 -15.414300 0.000000 0.000000 0.000000 7.125000 0.000000 -0.000000 9.635000 14.316800 7.055500
-0.357842 18.094874 -1.075221 2.366311 -3.161331 0.747630 0.000000 0.000000 0.000000 -20.898384 -2.901303 -0.473031 0.576523 4.862323 13.516288 0.410843 9.432444 -18.995811 0.646327 -5.142719 -14.316113 0.000000 0.000000 0.000000 19.018142 7.704085 -4.103596 -1.321404 -7.280350 20.548765 -0.493752 -8.535675 -19.030855 -0.213071 2.971765 -8.200138 -1.391752 1.849022 2.184052 -0.429722 2.437511 1.217715 0.286030 1.213571 -0.015353 -4.790552 -4.821682 -6.056742 0.962983 -6.222046 22.701156 0.570988 -3.257356 8.206876 0.000000 0.000000 0.000000 9.436094 12.135932 -37.771492 31.265756 -41.953898 12.247171 -2.745057 -12.668574 -29.178880 0.000000 0.000000 0.000000 -7.125000 0.000000 0.000000 -35.590270 55.373371 9.981465 0.000000 0.000000 0.000000 -4.501574 4.023083 23.366012 -14.311762 -23.178667 -2.949705 -13.218412 -3.314742 -15.332922 0.000000 0.000000 0.000000 7.125000 0.000000 0.000000 9.700329 14.406755 7.085971
-0.359363 18.095021 -1.072943 2.388501 -3.205367 0.755624 0.000000 0.000000 0.000000 -20.920804 -2.896701 -0.464499 0.574916 4.855579 13.497122 0.401965 9.563383 -19.031101 0.715207 -5.404533 -15.066039 0.000000 0.000000 0.000000 19.000450 7.795907 -4.088621 -1.325285 -7.290577 20.579031 -0.516282 -8.384166 -19.133959 -0.181675 2.744823 -7.569048 -1.454715 1.834321 2.103039 -0.405852 2.419091 1.276524 0.350038 1.203114 0.086806 -4.833942 -4.797072 -6.024952 1.040960 -6.198865 22.601027 0.608012 -3.242755 8.170528 0.000000 0.000000 0.000000 9.290249 12.085608 -37.578165 31.298636 -41.980790 12.269096 -2.526694 -12.480498 -29.079739 0.000000 0.000000 0.000000 -7.125000 0.000000 0.000000 -35.307013 55.334658 9.851312 0.000000 0.000000 0.000000 -4.525767 3.947779 23.366959 -14.308524 -23.174001 -2.948430 -13.355622 -3.386403 -15.375608 0.000000 0.000000 0.000000 7.125000 0.000000 0.000000 9.608157 14.352592 7.027908
-0.363800 18.094226 -1.070043 2.266985 -3.215329 0.741360 0.000000 0.000000 0.000000 -20.771329 -2.925275 -0.482014 0.584919 4.896830 13.614601 0.417815 9.500959 -19.142328 0.672222 -5.242685 -14.602196 0.000000 0.000000 0.000000 19.169785 7.778303 -3.997903 -1.311417 -7.253802 20.469580 -0.499525 -8.491655 -19.051919 -0.216870 2.997962 -8.273093 -1.366570 1.823122 2.082322 -0.354565 2.406440 1.307226 0.354973 1.196731 0.131373 -4.798037 -4.802499 -5.936715 1.025453 -6.211081 22.494236 0.599417 -3.247454 8.117005 0.000000 0.000000 0.000000 9.220966 12.169900 -37.579493 31.478106 -42.127089 12.389355 -2.600680 -12.530884 -29.125075 0.000000 0.000000 0.000000 -7.125000 0.000000 0.000000 -35.412651 55.357459 9.907348 0.000000 0.000000 0.000000 -4.509384 3.893364 23.303583 -14.237076 -23.072586 -2.920367 -13.513392 -3.446887 -15.613286 0.000000 0.000000 0.000000 7.125000 0.000000 0.000000 9.502546 14.099687 7.000135
